<svg width="80" height="80" viewBox="0 0 80 80" fill="none" xmlns="http://www.w3.org/2000/svg">
    <path
        d="M53.3334 73.4235V63.8568C53.4585 62.2673 53.2437 60.6695 52.7035 59.1694C52.1632 57.6694 51.3098 56.3015 50.2001 55.1568C60.6667 53.9901 71.6667 50.0235 71.6667 31.8235C71.6659 27.1695 69.8757 22.6941 66.6667 19.3235C68.1863 15.2518 68.0788 10.7513 66.3667 6.75679C66.3667 6.75679 62.4334 5.59012 53.3334 11.6901C45.6934 9.61953 37.6401 9.61953 30.0001 11.6901C20.9001 5.59012 16.9667 6.75679 16.9667 6.75679C15.2547 10.7513 15.1472 15.2518 16.6667 19.3235C13.4338 22.7191 11.6418 27.235 11.6667 31.9235C11.6667 49.9901 22.6667 53.9568 33.1334 55.2568C32.0367 56.39 31.191 57.7415 30.6511 59.2232C30.1113 60.7049 29.8894 62.2837 30.0001 63.8568V73.4235M30.0001 66.7568C20.0001 70.0001 11.6667 66.7568 6.66675 56.7568"
        stroke="currentColor" stroke-width="2" stroke-linecap="round" stroke-linejoin="round" />
</svg>