<svg width="80" height="80" viewBox="0 0 80 80" fill="none" xmlns="http://www.w3.org/2000/svg">
<path d="M23.3333 56.6667V33.3333M70 26.6667V53.3333C70 57.7536 68.2441 61.9928 65.1184 65.1184C61.9928 68.2441 57.7536 70 53.3333 70H26.6667C22.2464 70 18.0072 68.2441 14.8816 65.1184C11.7559 61.9928 10 57.7536 10 53.3333V26.6667C10 22.2464 11.7559 18.0072 14.8816 14.8816C18.0072 11.7559 22.2464 10 26.6667 10H53.3333C57.7536 10 61.9928 11.7559 65.1184 14.8816C68.2441 18.0072 70 22.2464 70 26.6667Z" stroke="#EEEEEE" stroke-width="2" stroke-linecap="round" stroke-linejoin="round"/>
<path d="M36.6666 56.6667V45.8334M36.6666 45.8334V33.3334M36.6666 45.8334C36.6666 33.3334 56.6666 33.3334 56.6666 45.8334V56.6667M23.3333 23.3667L23.3666 23.3301" stroke="#EEEEEE" stroke-width="2" stroke-linecap="round" stroke-linejoin="round"/>
</svg>
