<svg width="160" height="182" viewBox="0 0 160 182" fill="none" xmlns="http://www.w3.org/2000/svg">
    <path
        d="M77.5 0.775097C78.2601 0.336256 79.1223 0.105225 80 0.105225C80.8777 0.105225 81.7399 0.336256 82.5 0.775097L156.883 43.7251C157.644 44.1642 158.275 44.7959 158.714 45.5566C159.153 46.3173 159.384 47.1802 159.383 48.0584V133.95C159.384 134.828 159.153 135.691 158.714 136.452C158.275 137.213 157.644 137.844 156.883 138.283L82.5 181.217C81.7399 181.656 80.8777 181.887 80 181.887C79.1223 181.887 78.2601 181.656 77.5 181.217L3.1167 138.267C2.35613 137.828 1.72464 137.196 1.28577 136.435C0.846903 135.674 0.616137 134.812 0.6167 133.933V48.0584C0.616137 47.1802 0.846903 46.3173 1.28577 45.5566C1.72464 44.7959 2.35613 44.1642 3.1167 43.7251L77.5 0.783431V0.775097Z"
        fill="#EEEEEE" />
</svg>