<svg width="40" height="40" viewBox="0 0 40 40" fill="none" xmlns="http://www.w3.org/2000/svg">
<path d="M11.6666 15L20 20.8333L28.3333 15" stroke="#EEEEEE" stroke-width="1.5" stroke-linecap="round" stroke-linejoin="round"/>
<path d="M3.33337 28.3335V11.6668C3.33337 10.7828 3.68456 9.93493 4.30968 9.30981C4.93481 8.68469 5.78265 8.3335 6.66671 8.3335H33.3334C34.2174 8.3335 35.0653 8.68469 35.6904 9.30981C36.3155 9.93493 36.6667 10.7828 36.6667 11.6668V28.3335C36.6667 29.2176 36.3155 30.0654 35.6904 30.6905C35.0653 31.3156 34.2174 31.6668 33.3334 31.6668H6.66671C5.78265 31.6668 4.93481 31.3156 4.30968 30.6905C3.68456 30.0654 3.33337 29.2176 3.33337 28.3335Z" stroke="#EEEEEE" stroke-width="1.5"/>
</svg>
